<svg id="Layer_1" data-name="Layer 1" xmlns="http://www.w3.org/2000/svg" xmlns:xlink="http://www.w3.org/1999/xlink" viewBox="0 0 1920 473"><defs><style>.cls-1{fill:none;}.cls-2{clip-path:url(#clip-path);}.cls-3{clip-path:url(#clip-path-2);}.cls-4{clip-path:url(#clip-path-3);}.cls-5{fill:url(#linear-gradient);}.cls-6{clip-path:url(#clip-path-4);}.cls-7{fill:url(#linear-gradient-2);}.cls-8{clip-path:url(#clip-path-5);}.cls-9{fill:url(#linear-gradient-3);}.cls-10{clip-path:url(#clip-path-6);}.cls-11{fill:url(#linear-gradient-4);}.cls-12{clip-path:url(#clip-path-7);}.cls-13{fill:url(#linear-gradient-5);}.cls-14{fill:#f68b1f;}.cls-15{fill:#ffd100;}.cls-16{clip-path:url(#clip-path-8);}.cls-17{fill:url(#linear-gradient-6);}.cls-18{clip-path:url(#clip-path-9);}.cls-19{fill:url(#linear-gradient-7);}.cls-20{fill:#edb639;}.cls-21{clip-path:url(#clip-path-10);}.cls-22{fill:url(#linear-gradient-8);}.cls-23{fill:#eb4f33;}.cls-24{fill:#dc7c34;}.cls-25{fill:#da992c;}.cls-26{fill:#eea94b;}.cls-27{fill:#c49a6c;}.cls-28{fill:#eb5f4f;}.cls-29{fill:#eb7a2b;}.cls-30{fill:#d5682b;}.cls-31{clip-path:url(#clip-path-11);}.cls-32{fill:url(#linear-gradient-9);}</style><clipPath id="clip-path"><rect class="cls-1" width="1920" height="473"/></clipPath><clipPath id="clip-path-2"><rect class="cls-1" x="-53.8" y="-1500.62" width="3291.93" height="3292.07"/></clipPath><clipPath id="clip-path-3"><polygon class="cls-1" points="-53.8 1246.98 528 664.45 528 -252.3 494.35 -286.11 494.4 -508.56 -53.8 -1047.86 -53.8 1246.98"/></clipPath><linearGradient id="linear-gradient" x1="-0.47" y1="-620.96" x2="1.85" y2="-620.96" gradientTransform="matrix(1767.78, 0, 0, -1767.78, -273.63, -1097625.38)" gradientUnits="userSpaceOnUse"><stop offset="0" stop-color="#eac151"/><stop offset="0.19" stop-color="#eecd74"/><stop offset="0.75" stop-color="#faf1d7"/><stop offset="1" stop-color="#fff"/></linearGradient><clipPath id="clip-path-4"><polygon class="cls-1" points="-53.8 1712.25 -53.8 1791.33 1592.17 1791.33 1592.17 972.37 1321.55 972.37 1043.58 694.4 1043.58 614.87 -53.8 1712.25"/></clipPath><linearGradient id="linear-gradient-2" x1="2.21" y1="-618.48" x2="4.53" y2="-618.48" gradientTransform="matrix(-623.66, 0, 0, 623.66, 2887.75, 386922.39)" gradientUnits="userSpaceOnUse"><stop offset="0" stop-color="#e8c37c"/><stop offset="0.67" stop-color="#f8edd7"/><stop offset="1" stop-color="#fff"/></linearGradient><clipPath id="clip-path-5"><polygon class="cls-1" points="-53.8 1246.98 -53.8 1712.25 1154.69 503.76 1154.69 376.19 985.44 206.43 -53.8 1246.98"/></clipPath><linearGradient id="linear-gradient-3" x1="0.74" y1="-618.56" x2="3.06" y2="-618.56" gradientTransform="matrix(-989.93, 0, 0, 989.93, 2149.51, 613296.81)" xlink:href="#linear-gradient-2"/><clipPath id="clip-path-6"><polygon class="cls-1" points="1867.6 -127.04 1867.6 -44.05 1979.69 85.33 3238.14 -1173.13 3238.14 -1500.61 1867.6 -127.04"/></clipPath><linearGradient id="linear-gradient-4" x1="-0.39" y1="-622.58" x2="1.94" y2="-622.58" gradientTransform="matrix(689.05, 0, 0, -689.05, 1744.9, -429696.5)" gradientUnits="userSpaceOnUse"><stop offset="0" stop-color="#e17850"/><stop offset="1" stop-color="#ffd27a"/></linearGradient><clipPath id="clip-path-7"><polygon class="cls-1" points="1977.5 857.43 2909.07 1791.45 3238.14 1791.45 3238.14 1714.06 2178.13 656.7 1977.5 857.43"/></clipPath><linearGradient id="linear-gradient-5" x1="-4.47" y1="-619.81" x2="-2.14" y2="-619.81" gradientTransform="matrix(0, -871.44, -871.44, 0, -537515.55, -279.08)" gradientUnits="userSpaceOnUse"><stop offset="0" stop-color="#f7941d"/><stop offset="0.56" stop-color="#eeaf55"/><stop offset="1" stop-color="#e8c37c"/></linearGradient><clipPath id="clip-path-8"><polygon class="cls-1" points="1864.83 972.37 1750.56 972.37 2571.81 1791.33 2909.07 1791.45 1977.5 857.43 1864.83 972.37"/></clipPath><linearGradient id="linear-gradient-6" x1="3.09" y1="-621.11" x2="5.41" y2="-621.11" gradientTransform="matrix(0, 649.41, 649.41, 0, 405682.98, -1416.69)" gradientUnits="userSpaceOnUse"><stop offset="0" stop-color="#e8c37c"/><stop offset="0.04" stop-color="#e7c17b"/><stop offset="1" stop-color="#c49a6c"/></linearGradient><clipPath id="clip-path-9"><polygon class="cls-1" points="528 -252.3 528 664.45 985.44 206.43 528 -252.3"/></clipPath><linearGradient id="linear-gradient-7" x1="-0.46" y1="-621.07" x2="1.86" y2="-621.07" gradientTransform="matrix(1660.85, 0, 0, -1660.85, -201.96, -1031299.84)" xlink:href="#linear-gradient"/><clipPath id="clip-path-10"><polygon class="cls-1" points="1154.69 376.19 1154.69 503.76 1043.58 614.87 1043.58 694.4 1321.55 972.37 1592.17 972.37 1592.17 813.35 1154.69 376.19"/></clipPath><linearGradient id="linear-gradient-8" x1="0.55" y1="-624.82" x2="2.87" y2="-624.82" gradientTransform="matrix(393.08, 0, 0, -393.08, 566.14, -244934.12)" gradientUnits="userSpaceOnUse"><stop offset="0" stop-color="#a97c50"/><stop offset="0.38" stop-color="#c09662"/><stop offset="1" stop-color="#e3bd7d"/></linearGradient><clipPath id="clip-path-11"><polygon class="cls-1" points="494.4 -1500.61 494.4 -508.56 1097.4 93.44 1371.87 -182.47 1371.87 -459.43 1453.01 -541.48 494.4 -1500.61"/></clipPath><linearGradient id="linear-gradient-9" x1="1.19" y1="-619.96" x2="3.51" y2="-619.96" gradientTransform="matrix(0, 631.92, 631.92, 0, 392744.05, -2104.1)" xlink:href="#linear-gradient-5"/></defs><title>Agder Energi</title><g class="cls-2"><g class="cls-3"><g class="cls-4"><rect class="cls-5" x="-194.6" y="-1075.17" width="863.41" height="2349.47" transform="translate(-10.56 30.34) rotate(-7.16)"/></g><g class="cls-6"><rect class="cls-7" x="-70.05" y="226.21" width="1678.49" height="1953.78" transform="translate(-627.13 1502.12) rotate(-69.5)"/></g><g class="cls-8"><rect class="cls-9" x="-412.58" y="4.52" width="1926.05" height="1909.64" transform="translate(-527.6 712.09) rotate(-47.24)"/></g><g class="cls-10"><rect class="cls-11" x="1509.26" y="-1754.19" width="2087.21" height="2093.09" transform="translate(1203.84 1572.28) rotate(-43.89)"/></g><g class="cls-12"><rect class="cls-13" x="1759.75" y="380.98" width="1696.13" height="1686.18" transform="translate(-152.18 2049.61) rotate(-41.8)"/></g><polygon class="cls-14" points="2348.29 75.67 2209.45 214.51 2029.82 35.2 1793.01 271.75 2178.13 656.7 2553.72 281.1 2348.29 75.67"/><polygon class="cls-15" points="1154.69 35.61 985.44 206.43 1154.69 376.19 1154.69 35.61"/><g class="cls-16"><rect class="cls-17" x="1591.96" y="583.02" width="1475.7" height="1482.84" transform="translate(-237.51 2093.22) rotate(-46.29)"/></g><g class="cls-18"><rect class="cls-19" x="472.63" y="-277.25" width="568.19" height="966.64" transform="translate(-19.79 95.97) rotate(-7.16)"/></g><polygon class="cls-20" points="1097.4 93.44 494.4 -508.56 494.35 -286.11 985.44 206.43 1097.4 93.44"/><g class="cls-21"><rect class="cls-22" x="1011.46" y="346.93" width="612.83" height="654.69" transform="translate(-68.13 154.24) rotate(-6.53)"/></g><polygon class="cls-23" points="1592.17 472.05 1754.8 309.9 1592.17 145.42 1592.17 472.05"/><polygon class="cls-24" points="1592.17 472.05 1592.17 145.42 1427.57 307.84 1592.17 472.05"/><polygon class="cls-25" points="1154.69 35.61 1154.69 376.19 1592.17 813.35 1592.17 472.05 1154.69 35.61"/><polygon class="cls-26" points="1592.17 472.05 1977.5 857.43 2178.13 656.7 1793.01 271.75 1592.17 472.05"/><polygon class="cls-27" points="1592.17 813.35 1750.56 972.37 1864.83 972.37 1977.5 857.43 1592.17 472.05 1592.17 813.35"/><polygon class="cls-28" points="1592.17 145.42 1754.8 309.9 1979.69 85.33 1867.6 -44.05 1867.6 -127.04 1592.17 145.42"/><polygon class="cls-29" points="1867.6 -127.04 1592.17 -403.25 1592.17 145.42 1867.6 -127.04"/><polygon class="cls-30" points="1154.69 35.61 1427.57 307.84 1592.17 145.42 1592.17 -403.25 1154.69 35.61"/><g class="cls-31"><rect class="cls-32" x="208.06" y="-1627.4" width="1531.3" height="1847.64" transform="translate(377.42 339.29) rotate(-24.39)"/></g></g></g></svg>